<svg id="Layer_1" data-name="Layer 1" xmlns="http://www.w3.org/2000/svg" viewBox="0 0 171 40" width="128" height="30"><defs><style>.cls-1{fill:#fff;}</style></defs><path class="cls-1" d="M170.63,24.63a.75.75,0,0,1,0,.16,42.11,42.11,0,0,1-1.45,4.32c-2.83,6.28-9.39,7.49-14,4-.31-.23-.64-.43-1.09-.72V40h-9.37c0-2.39,0-4.78,0-7.17q0-12.75,0-25.49V6.08h.9c2,0,3.92,0,5.88,0,1.05,0,2.05-.1,2.13,1.3,1.22-.64,2.33-1.29,3.48-1.82,4-1.84,7.14-.47,9.63,2.32a17.06,17.06,0,0,1,3.75,8.07A21.61,21.61,0,0,1,170.63,24.63Zm-17.08-4.47a2.29,2.29,0,0,0,0,.94,17.49,17.49,0,0,0,.93,3.5c1.21,2.73,4.21,2.89,5.9.41a8.87,8.87,0,0,0-.21-9.21,3.34,3.34,0,0,0-5.79.85A25.35,25.35,0,0,0,153.55,20.16Z" transform="translate(0)"/><path class="cls-1" d="M49.8,0c0,.3.09.61.09.91v32.5c0,.27,0,.54,0,.87H31.41V0Z" transform="translate(0)"/><path class="cls-1" d="M30.49,0c-.47.6-.92,1.21-1.42,1.78L.92,33.94l-.85.94c0-.44-.07-.7-.07-1Q0,17.45,0,1A6.61,6.61,0,0,1,.15,0Z" transform="translate(0)"/><path class="cls-1" d="M114.49,23.1H97.94a4.54,4.54,0,0,0,2.58,4.34,3.8,3.8,0,0,0,4.59-1,2.33,2.33,0,0,1,2.16-1c2.35.06,4.7,0,7.12,0a8,8,0,0,1-2.53,5.67A14,14,0,0,1,98.26,35c-5.17-1.26-8.15-5-9.43-10A17.19,17.19,0,0,1,92,9.36c4.73-5.89,12.58-6.21,17.85-.81A18.19,18.19,0,0,1,114.49,23.1ZM97.65,16.38h7.44c-.46-2.56-1.8-3.78-4-3.66A3.72,3.72,0,0,0,97.65,16.38Z" transform="translate(0)"/><path class="cls-1" d="M126,23.09a4.39,4.39,0,0,0,2.66,4.41,3.85,3.85,0,0,0,4.68-1.27,1.85,1.85,0,0,1,1.7-.76c2.45,0,4.9,0,7.44,0A10.57,10.57,0,0,1,138.75,32c-8,6.91-19.49,3.1-22-7.32a17.19,17.19,0,0,1,2.9-15,11.79,11.79,0,0,1,18.77-.56c3.28,3.81,4.41,8.31,4.21,13.24,0,.7-.36.77-.93.77-4.93,0-9.86,0-14.79,0Zm7.33-6.8c-.21-2.44-1.88-3.94-4-3.7a3.51,3.51,0,0,0-3.26,3.7Z" transform="translate(0)"/><path class="cls-1" d="M65.44,17.14a42.58,42.58,0,0,0,.76,4.48c.91,3.24,4.45,4.21,7.37,2.51a4.14,4.14,0,0,0,2-3.08,14.61,14.61,0,0,0,.2-2.47c0-5.83,0-11.66,0-17.49V0H86.16a2.85,2.85,0,0,1,.08.51c0,6.75.07,13.5-.06,20.24A14,14,0,0,1,82,31.06a12.14,12.14,0,0,1-4.71,2.78,20.74,20.74,0,0,1-10.42,1A12.68,12.68,0,0,1,56.27,23.4c-.24-2-.22-4.14-.31-6.26Z" transform="translate(0)"/></svg>
